<svg xmlns="http://www.w3.org/2000/svg" xmlns:xlink="http://www.w3.org/1999/xlink" id="Ebene_1" x="0px" y="0px" viewBox="0 0 373.97 173.23" style="enable-background:new 0 0 373.97 173.23;" xml:space="preserve"><style type="text/css">	.st0{fill:#FFFFFF;}</style><g>	<g>		<path class="st0" d="M48.56,49.71h15.38c4.86,0,8.54,0.38,11.04,1.13c2.5,0.76,4.52,2.29,6.06,4.59   c1.54,2.31,2.31,6.02,2.31,11.14c0,3.46-0.54,5.88-1.63,7.25c-1.09,1.37-3.23,2.42-6.43,3.15c3.56,0.81,5.98,2.14,7.25,4.01   c1.27,1.87,1.9,4.73,1.9,8.59v5.5c0,4.01-0.46,6.97-1.37,8.9c-0.92,1.93-2.37,3.25-4.38,3.96c-2,0.71-6.1,1.06-12.3,1.06H48.56   V49.71z M63.97,59.86v13.18c0.66-0.02,1.17-0.04,1.54-0.04c1.51,0,2.48-0.37,2.89-1.12c0.41-0.74,0.62-2.88,0.62-6.39   c0-1.85-0.17-3.16-0.51-3.9c-0.34-0.74-0.79-1.21-1.34-1.41C66.63,59.99,65.56,59.88,63.97,59.86z M63.97,82.27v16.59   c2.17-0.07,3.56-0.42,4.16-1.03c0.6-0.61,0.9-2.11,0.9-4.5V87.8c0-2.54-0.27-4.08-0.81-4.61C67.69,82.65,66.27,82.34,63.97,82.27z   "></path>		<path class="st0" d="M123.04,85.56h-19.15v10.51c0,2.2,0.16,3.61,0.48,4.25c0.32,0.64,0.93,0.95,1.83,0.95   c1.12,0,1.87-0.42,2.25-1.26c0.38-0.84,0.57-2.47,0.57-4.89v-6.41h14.03v3.59c0,3-0.19,5.31-0.57,6.92   c-0.38,1.61-1.26,3.33-2.66,5.16s-3.16,3.2-5.29,4.12c-2.14,0.92-4.82,1.37-8.04,1.37c-3.13,0-5.88-0.45-8.28-1.36   c-2.39-0.9-4.25-2.14-5.58-3.72c-1.33-1.57-2.25-3.31-2.76-5.2c-0.51-1.89-0.77-4.64-0.77-8.26V77.18c0-4.25,0.57-7.6,1.72-10.05   c1.15-2.45,3.03-4.33,5.64-5.64c2.61-1.31,5.61-1.96,9.01-1.96c4.15,0,7.57,0.79,10.27,2.36c2.7,1.58,4.59,3.66,5.68,6.26   c1.09,2.6,1.63,6.26,1.63,10.97V85.56z M108.21,77.65V74.1c0-2.51-0.13-4.14-0.4-4.87c-0.27-0.73-0.82-1.1-1.65-1.1   c-1.03,0-1.66,0.31-1.9,0.93c-0.24,0.62-0.37,2.3-0.37,5.04v3.55H108.21z"></path>		<path class="st0" d="M161.75,60.41V109H146.7l0.26-4.04c-1.03,1.64-2.29,2.87-3.79,3.69s-3.23,1.23-5.18,1.23   c-2.22,0-4.06-0.39-5.53-1.17s-2.55-1.82-3.24-3.11c-0.7-1.29-1.13-2.64-1.3-4.05c-0.17-1.4-0.26-4.19-0.26-8.37V60.41h14.79   v33.07c0,3.78,0.12,6.03,0.35,6.74c0.23,0.71,0.86,1.06,1.89,1.06c1.1,0,1.75-0.37,1.96-1.1c0.21-0.73,0.31-3.09,0.31-7.07v-32.7   H161.75z"></path>		<path class="st0" d="M181.86,60.41l-0.59,6.39c2.15-4.58,5.26-7,9.34-7.27v17.1c-2.71,0-4.7,0.37-5.97,1.1   c-1.27,0.73-2.05,1.75-2.34,3.06c-0.29,1.31-0.44,4.32-0.44,9.03V109h-14.79v-48.6H181.86z"></path>		<path class="st0" d="M224.12,75.93h-13.11V73.3c0-2.25-0.13-3.67-0.38-4.27c-0.26-0.6-0.9-0.9-1.92-0.9   c-0.83,0-1.45,0.27-1.87,0.82c-0.42,0.55-0.62,1.37-0.62,2.47c0,1.49,0.1,2.58,0.31,3.28c0.21,0.7,0.83,1.46,1.87,2.29   c1.04,0.83,3.17,2.04,6.39,3.63c4.3,2.1,7.12,4.08,8.46,5.93c1.34,1.86,2.01,4.55,2.01,8.09c0,3.96-0.51,6.94-1.54,8.95   c-1.03,2.01-2.74,3.56-5.15,4.65s-5.3,1.63-8.7,1.63c-3.76,0-6.98-0.59-9.65-1.76c-2.67-1.17-4.51-2.76-5.51-4.76   c-1-2-1.5-5.03-1.5-9.08v-2.34h13.11v3.08c0,2.61,0.17,4.31,0.49,5.09c0.33,0.78,0.98,1.17,1.96,1.17c1.05,0,1.78-0.26,2.2-0.79   c0.41-0.52,0.62-1.63,0.62-3.31c0-2.32-0.27-3.77-0.8-4.36c-0.56-0.59-3.43-2.32-8.61-5.2c-4.35-2.44-7-4.66-7.95-6.65   s-1.43-4.35-1.43-7.09c0-3.88,0.51-6.74,1.54-8.59c1.03-1.84,2.76-3.27,5.22-4.27c2.45-1,5.3-1.5,8.55-1.5   c3.22,0,5.96,0.41,8.22,1.23c2.26,0.82,3.99,1.9,5.2,3.24c1.21,1.34,1.94,2.59,2.2,3.74c0.26,1.15,0.38,2.94,0.38,5.38V75.93z"></path>		<path class="st0" d="M261.07,60.41l-6.01,19.35l7.8,29.24h-14.23l-4.61-21.18L244,109h-14.79V49.71H244l0.02,24.89l4.61-14.2   H261.07z"></path>		<path class="st0" d="M298.57,85.56h-19.15v10.51c0,2.2,0.16,3.61,0.48,4.25c0.32,0.64,0.93,0.95,1.83,0.95   c1.12,0,1.87-0.42,2.25-1.26c0.38-0.84,0.57-2.47,0.57-4.89v-6.41h14.03v3.59c0,3-0.19,5.31-0.57,6.92   c-0.38,1.61-1.26,3.33-2.66,5.16s-3.16,3.2-5.29,4.12c-2.14,0.92-4.82,1.37-8.04,1.37c-3.12,0-5.88-0.45-8.28-1.36   c-2.39-0.9-4.25-2.14-5.58-3.72c-1.33-1.57-2.25-3.31-2.77-5.2c-0.51-1.89-0.77-4.64-0.77-8.26V77.18c0-4.25,0.57-7.6,1.72-10.05   c1.15-2.45,3.03-4.33,5.64-5.64s5.62-1.96,9.01-1.96c4.15,0,7.57,0.79,10.27,2.36c2.7,1.58,4.59,3.66,5.68,6.26   c1.09,2.6,1.63,6.26,1.63,10.97V85.56z M283.73,77.65V74.1c0-2.51-0.13-4.14-0.4-4.87s-0.82-1.1-1.65-1.1   c-1.03,0-1.66,0.31-1.9,0.93c-0.24,0.62-0.37,2.3-0.37,5.04v3.55H283.73z"></path>		<path class="st0" d="M318.45,60.41l-0.26,4.48c1.07-1.79,2.39-3.12,3.94-4.02c1.55-0.89,3.34-1.34,5.37-1.34   c2.54,0,4.61,0.6,6.23,1.79c1.61,1.2,2.65,2.7,3.11,4.52c0.46,1.82,0.7,4.85,0.7,9.1V109h-14.79V75.35c0-3.34-0.11-5.38-0.33-6.12   s-0.83-1.1-1.83-1.1c-1.05,0-1.71,0.42-1.98,1.26c-0.27,0.84-0.4,3.09-0.4,6.76V109H303.4v-48.6H318.45z"></path>		<path class="st0" d="M372.83,75.93h-13.11V73.3c0-2.25-0.13-3.67-0.38-4.27c-0.26-0.6-0.9-0.9-1.92-0.9   c-0.83,0-1.45,0.27-1.87,0.82c-0.42,0.55-0.62,1.37-0.62,2.47c0,1.49,0.1,2.58,0.31,3.28c0.21,0.7,0.83,1.46,1.87,2.29   c1.04,0.83,3.17,2.04,6.39,3.63c4.3,2.1,7.12,4.08,8.46,5.93c1.34,1.86,2.01,4.55,2.01,8.09c0,3.96-0.51,6.94-1.54,8.95   c-1.03,2.01-2.74,3.56-5.15,4.65c-2.41,1.09-5.3,1.63-8.7,1.63c-3.76,0-6.98-0.59-9.65-1.76c-2.67-1.17-4.51-2.76-5.51-4.76   c-1-2-1.5-5.03-1.5-9.08v-2.34h13.11v3.08c0,2.61,0.17,4.31,0.5,5.09c0.33,0.78,0.98,1.17,1.96,1.17c1.05,0,1.78-0.26,2.2-0.79   c0.42-0.52,0.62-1.63,0.62-3.31c0-2.32-0.27-3.77-0.81-4.36c-0.56-0.59-3.43-2.32-8.61-5.2c-4.35-2.44-7-4.66-7.95-6.65   s-1.43-4.35-1.43-7.09c0-3.88,0.51-6.74,1.54-8.59c1.03-1.84,2.76-3.27,5.22-4.27c2.45-1,5.3-1.5,8.55-1.5   c3.22,0,5.96,0.41,8.22,1.23c2.26,0.82,3.99,1.9,5.2,3.24c1.21,1.34,1.94,2.59,2.2,3.74c0.26,1.15,0.38,2.94,0.38,5.38V75.93z"></path>	</g>	<g>		<g>			<polygon class="st0" points="125.11,39.49 38.32,39.49 38.32,132.64 0,173.23 0,41.49 40.32,0 166.6,0    "></polygon>			<polygon class="st0" points="163.11,39.66 202.38,0 176.32,0 135.21,39.66    "></polygon>			<polygon class="st0" points="201.81,30.74 232.22,0.03 212.28,0.03 181.99,30.74    "></polygon>			<polygon class="st0" points="235.49,18.64 253.92,0.03 241.83,0.03 223.48,18.64    "></polygon>		</g>	</g>	<g>		<path class="st0" d="M56.59,127.93v-2.61h5.5v6.18c-0.74,0.63-1.61,1.12-2.6,1.48s-2.12,0.53-3.39,0.53c-1.56,0-2.89-0.32-4-0.95   c-1.11-0.63-1.97-1.51-2.56-2.63c-0.59-1.12-0.89-2.41-0.89-3.86c0-1.07,0.18-2.06,0.54-2.97c0.36-0.91,0.86-1.71,1.52-2.4   c0.66-0.69,1.44-1.22,2.34-1.59s1.9-0.57,2.99-0.57c1.3,0,2.44,0.24,3.42,0.72c0.98,0.48,1.79,1.15,2.42,2l-2.18,2.08   c-0.44-0.54-0.94-0.98-1.5-1.33c-0.56-0.34-1.23-0.51-2.03-0.51c-0.87,0-1.62,0.21-2.24,0.62c-0.62,0.41-1.1,0.97-1.42,1.66   s-0.49,1.46-0.49,2.3c0,0.91,0.19,1.71,0.57,2.39c0.38,0.68,0.89,1.2,1.53,1.57c0.64,0.37,1.37,0.56,2.18,0.56   c0.57,0,1.09-0.07,1.56-0.2s0.89-0.35,1.26-0.65v-1.8H56.59z"></path>		<path class="st0" d="M72.64,130.13l1.26,1.95c-0.14,0.1-0.4,0.26-0.76,0.49c-0.36,0.23-0.85,0.44-1.44,0.64   c-0.6,0.2-1.33,0.3-2.2,0.3c-1.14,0-2.13-0.23-2.95-0.68c-0.83-0.46-1.46-1.09-1.91-1.9c-0.44-0.81-0.66-1.75-0.66-2.8   c0-0.94,0.2-1.82,0.61-2.63c0.41-0.81,1-1.47,1.78-1.96s1.71-0.74,2.79-0.74s1.99,0.25,2.73,0.74c0.73,0.49,1.29,1.17,1.67,2.03   c0.38,0.86,0.57,1.86,0.57,2.99v0.51h-7.15c0.01,0.53,0.26,1,0.73,1.41c0.47,0.41,1.11,0.62,1.9,0.62s1.45-0.12,1.95-0.35   C72.05,130.51,72.41,130.31,72.64,130.13z M66.97,127.1h4.24c0-0.29-0.08-0.57-0.22-0.87c-0.15-0.29-0.38-0.54-0.69-0.74   c-0.31-0.2-0.7-0.3-1.17-0.3s-0.87,0.1-1.19,0.3c-0.32,0.2-0.56,0.45-0.73,0.74C67.05,126.52,66.97,126.81,66.97,127.1z"></path>		<path class="st0" d="M75.87,133.17V118.9h3.08v14.27H75.87z"></path>		<path class="st0" d="M87.13,133.17l-0.08-0.94c-0.71,0.83-1.73,1.24-3.04,1.24c-0.47,0-0.97-0.09-1.49-0.27   c-0.52-0.18-0.97-0.5-1.34-0.95c-0.37-0.46-0.56-1.08-0.56-1.88c0-0.78,0.2-1.45,0.61-1.99s0.96-0.95,1.66-1.23   c0.7-0.28,1.48-0.42,2.35-0.42c0.36,0,0.72,0.01,1.08,0.02c0.36,0.01,0.6,0.04,0.72,0.06v-0.21c0-0.51-0.2-0.88-0.59-1.1   s-0.84-0.33-1.34-0.33c-0.67,0-1.23,0.09-1.69,0.26c-0.46,0.17-0.84,0.36-1.16,0.58l-1.26-1.88c0.41-0.33,0.98-0.63,1.69-0.91   c0.71-0.28,1.66-0.42,2.85-0.42c1.53,0,2.65,0.41,3.38,1.23s1.09,1.92,1.09,3.31v5.84H87.13z M82.06,121.32v-2.44h2.63v2.44H82.06   z M87.04,129.56v-0.81c-0.07-0.01-0.21-0.03-0.41-0.05c-0.2-0.02-0.43-0.03-0.68-0.03c-0.86,0-1.46,0.12-1.82,0.36   s-0.53,0.58-0.53,1.03c0,0.83,0.5,1.24,1.5,1.24c0.48,0,0.93-0.15,1.34-0.45C86.84,130.54,87.04,130.11,87.04,129.56z    M86.19,121.32v-2.44h2.63v2.44H86.19z"></path>		<path class="st0" d="M92.26,133.17v-10.04h2.95l0.08,1.09c0.33-0.4,0.76-0.72,1.31-0.96c0.54-0.24,1.1-0.36,1.67-0.36   c1.14,0,2.05,0.34,2.74,1.03c0.68,0.68,1.03,1.7,1.03,3.04v6.21h-3.08v-5.78c0-0.56-0.14-1-0.42-1.33   c-0.28-0.33-0.67-0.49-1.17-0.49c-0.67,0-1.18,0.22-1.53,0.66c-0.35,0.44-0.52,0.96-0.52,1.54v5.39H92.26z"></path>		<path class="st0" d="M111.22,133.17l-0.13-1.01c-0.31,0.36-0.72,0.66-1.21,0.92c-0.49,0.26-1.05,0.39-1.68,0.39   c-0.81,0-1.55-0.21-2.21-0.63c-0.66-0.42-1.19-1.02-1.58-1.8c-0.39-0.78-0.59-1.69-0.59-2.75c0-0.9,0.16-1.69,0.47-2.36   c0.31-0.68,0.73-1.24,1.25-1.68c0.52-0.44,1.09-0.77,1.7-1s1.22-0.33,1.82-0.33c0.48,0,0.87,0.03,1.14,0.1s0.55,0.15,0.82,0.25   v-4.37h3.06v14.27H111.22z M111.03,128.64v-2.74c-0.4-0.24-0.94-0.36-1.63-0.36c-0.78,0-1.39,0.26-1.83,0.79   c-0.44,0.53-0.65,1.21-0.65,2.03c0,0.73,0.18,1.32,0.55,1.79c0.36,0.46,0.9,0.7,1.59,0.7c0.7,0,1.2-0.22,1.51-0.67   C110.88,129.72,111.03,129.21,111.03,128.64z"></path>		<path class="st0" d="M124.58,130.13l1.26,1.95c-0.14,0.1-0.4,0.26-0.76,0.49c-0.36,0.23-0.85,0.44-1.44,0.64   c-0.6,0.2-1.33,0.3-2.2,0.3c-1.14,0-2.13-0.23-2.95-0.68c-0.83-0.46-1.46-1.09-1.91-1.9c-0.44-0.81-0.66-1.75-0.66-2.8   c0-0.94,0.2-1.82,0.61-2.63c0.41-0.81,1-1.47,1.78-1.96s1.71-0.74,2.79-0.74s1.99,0.25,2.73,0.74c0.73,0.49,1.29,1.17,1.67,2.03   c0.38,0.86,0.57,1.86,0.57,2.99v0.51h-7.15c0.01,0.53,0.26,1,0.73,1.41c0.47,0.41,1.11,0.62,1.9,0.62s1.45-0.12,1.95-0.35   C123.99,130.51,124.35,130.31,124.58,130.13z M118.91,127.1h4.24c0-0.29-0.08-0.57-0.22-0.87c-0.15-0.29-0.38-0.54-0.69-0.74   c-0.31-0.2-0.7-0.3-1.17-0.3s-0.87,0.1-1.19,0.3c-0.32,0.2-0.56,0.45-0.73,0.74C118.99,126.52,118.91,126.81,118.91,127.1z"></path>		<path class="st0" d="M127.81,133.17v-10.04h2.95l0.11,1.26c0.26-0.34,0.61-0.67,1.06-0.98s1.03-0.47,1.74-0.47   c0.27,0,0.5,0.01,0.7,0.04c0.19,0.03,0.38,0.08,0.57,0.15l-0.49,2.72c-0.31-0.1-0.68-0.15-1.11-0.15c-0.73,0-1.32,0.22-1.76,0.65   c-0.45,0.44-0.67,1.05-0.67,1.85v4.96H127.81z"></path>		<path class="st0" d="M135.94,133.17v-2.08l4.92-5.48h-4.71v-2.48h8.6v2.12l-4.94,5.5h4.96v2.42H135.94z"></path>		<path class="st0" d="M146.66,129.36v-6.23h3.08v5.78c0,0.57,0.14,1.02,0.42,1.35s0.69,0.49,1.23,0.49c0.63,0,1.11-0.23,1.46-0.67   c0.34-0.45,0.51-0.96,0.51-1.53v-5.41h3.06v10.04h-2.95l-0.09-1.07c-0.33,0.39-0.76,0.7-1.29,0.95c-0.53,0.25-1.09,0.37-1.68,0.37   c-1.14,0-2.05-0.34-2.73-1.03C147,131.72,146.66,130.7,146.66,129.36z"></path>		<path class="st0" d="M158.71,132.79V118.9h3.08v4.99c0.29-0.3,0.67-0.54,1.17-0.71c0.49-0.17,0.98-0.26,1.47-0.26   c0.96,0,1.76,0.23,2.43,0.7c0.66,0.46,1.17,1.08,1.52,1.84c0.35,0.76,0.52,1.6,0.52,2.51c0,1.08-0.23,2.04-0.69,2.88   c-0.46,0.83-1.12,1.49-2,1.96c-0.88,0.47-1.94,0.71-3.18,0.71c-0.86,0-1.67-0.08-2.43-0.24   C159.84,133.12,159.21,132.96,158.71,132.79z M161.79,127.63v3.1c0.17,0.06,0.36,0.11,0.58,0.15c0.21,0.04,0.5,0.06,0.86,0.06   c0.8,0,1.43-0.26,1.88-0.79c0.46-0.53,0.68-1.22,0.68-2.08c0-0.41-0.07-0.81-0.2-1.2s-0.35-0.7-0.64-0.95   c-0.29-0.25-0.67-0.37-1.14-0.37c-0.68,0-1.19,0.19-1.52,0.57S161.79,127,161.79,127.63z"></path>		<path class="st0" d="M178.93,130.13l1.26,1.95c-0.14,0.1-0.4,0.26-0.76,0.49c-0.36,0.23-0.85,0.44-1.44,0.64   c-0.6,0.2-1.33,0.3-2.2,0.3c-1.14,0-2.13-0.23-2.95-0.68c-0.83-0.46-1.46-1.09-1.91-1.9c-0.44-0.81-0.66-1.75-0.66-2.8   c0-0.94,0.2-1.82,0.61-2.63c0.41-0.81,1-1.47,1.78-1.96s1.71-0.74,2.79-0.74s1.99,0.25,2.73,0.74c0.73,0.49,1.29,1.17,1.67,2.03   c0.38,0.86,0.57,1.86,0.57,2.99v0.51h-7.15c0.01,0.53,0.26,1,0.73,1.41c0.47,0.41,1.11,0.62,1.9,0.62s1.45-0.12,1.95-0.35   C178.34,130.51,178.7,130.31,178.93,130.13z M173.26,127.1h4.24c0-0.29-0.08-0.57-0.22-0.87c-0.15-0.29-0.38-0.54-0.69-0.74   c-0.31-0.2-0.7-0.3-1.17-0.3s-0.87,0.1-1.19,0.3c-0.32,0.2-0.56,0.45-0.73,0.74C173.34,126.52,173.26,126.81,173.26,127.1z"></path>		<path class="st0" d="M182.16,133.17V118.9h3.06v5.2c0.33-0.39,0.76-0.68,1.31-0.89c0.54-0.21,1.09-0.31,1.65-0.31   c1.14,0,2.06,0.35,2.76,1.04s1.05,1.7,1.05,3.03v6.21h-3.06v-5.74c0-0.58-0.15-1.04-0.45-1.37c-0.3-0.33-0.7-0.49-1.2-0.49   c-0.66,0-1.16,0.22-1.51,0.66c-0.35,0.44-0.52,0.96-0.52,1.54v5.39H182.16z"></path>		<path class="st0" d="M193.78,128.14c0-0.98,0.23-1.88,0.68-2.7c0.46-0.81,1.09-1.46,1.89-1.94c0.81-0.48,1.74-0.72,2.81-0.72   c1.07,0,2.01,0.24,2.81,0.72s1.43,1.12,1.88,1.94c0.45,0.81,0.67,1.71,0.67,2.7s-0.22,1.88-0.67,2.7   c-0.45,0.81-1.08,1.46-1.88,1.95s-1.74,0.73-2.81,0.73c-1.07,0-2.01-0.24-2.81-0.73c-0.81-0.48-1.44-1.13-1.89-1.95   C194.01,130.03,193.78,129.13,193.78,128.14z M195.8,121.32v-2.44h2.63v2.44H195.8z M199.18,130.84c0.53,0,0.97-0.13,1.32-0.39   s0.62-0.59,0.8-1.01c0.19-0.41,0.28-0.85,0.28-1.31s-0.09-0.89-0.28-1.29s-0.45-0.74-0.8-1s-0.79-0.39-1.32-0.39   c-0.51,0-0.95,0.13-1.32,0.39c-0.36,0.26-0.64,0.59-0.82,1s-0.28,0.84-0.28,1.29s0.09,0.89,0.28,1.31   c0.19,0.41,0.46,0.75,0.82,1.01C198.22,130.71,198.66,130.84,199.18,130.84z M199.92,121.32v-2.44h2.63v2.44H199.92z"></path>		<path class="st0" d="M206.37,133.17v-10.04h2.95l0.11,1.26c0.26-0.34,0.61-0.67,1.06-0.98s1.03-0.47,1.74-0.47   c0.27,0,0.5,0.01,0.7,0.04c0.19,0.03,0.38,0.08,0.57,0.15l-0.49,2.72c-0.31-0.1-0.69-0.15-1.11-0.15c-0.73,0-1.32,0.22-1.77,0.65   c-0.45,0.44-0.67,1.05-0.67,1.85v4.96H206.37z"></path>		<path class="st0" d="M227.83,133.17l-1.01-1.18c-0.63,0.53-1.25,0.91-1.88,1.16c-0.63,0.24-1.33,0.36-2.12,0.36   c-0.94,0-1.77-0.18-2.47-0.53c-0.71-0.36-1.26-0.85-1.65-1.47s-0.59-1.34-0.59-2.15c0-0.84,0.22-1.64,0.67-2.41   c0.45-0.76,1.16-1.44,2.13-2.04c-0.31-0.44-0.55-0.9-0.71-1.36s-0.24-0.9-0.24-1.32c0-0.68,0.18-1.31,0.54-1.87   c0.36-0.56,0.86-1.01,1.52-1.35c0.66-0.33,1.43-0.5,2.31-0.5c1.04,0,1.89,0.24,2.54,0.73c0.65,0.49,1.14,1.07,1.47,1.75   l-2.18,1.35c-0.23-0.48-0.49-0.83-0.77-1.03s-0.59-0.3-0.92-0.3c-0.43,0-0.77,0.12-1.04,0.37c-0.26,0.25-0.4,0.56-0.4,0.93   c0,0.29,0.07,0.56,0.22,0.82c0.15,0.26,0.32,0.52,0.52,0.76l3.34,3.96l1.93-2.2l2.08,1.82l-2.2,2.5l2.7,3.19H227.83z    M225.11,129.92l-2.61-3.06c-0.51,0.37-0.87,0.73-1.07,1.09c-0.2,0.36-0.3,0.74-0.3,1.16c0,0.51,0.17,0.93,0.52,1.24   s0.82,0.47,1.42,0.47c0.41,0,0.78-0.08,1.09-0.24C224.48,130.43,224.8,130.21,225.11,129.92z"></path>		<path class="st0" d="M244.42,127.93v-2.61h5.5v6.18c-0.74,0.63-1.61,1.12-2.6,1.48c-0.99,0.36-2.12,0.53-3.39,0.53   c-1.56,0-2.89-0.32-4-0.95c-1.11-0.63-1.97-1.51-2.56-2.63c-0.59-1.12-0.89-2.41-0.89-3.86c0-1.07,0.18-2.06,0.53-2.97   c0.36-0.91,0.86-1.71,1.52-2.4c0.66-0.69,1.44-1.22,2.34-1.59c0.91-0.38,1.9-0.57,2.99-0.57c1.3,0,2.44,0.24,3.42,0.72   c0.98,0.48,1.79,1.15,2.42,2l-2.18,2.08c-0.44-0.54-0.94-0.98-1.5-1.33s-1.23-0.51-2.03-0.51c-0.87,0-1.62,0.21-2.24,0.62   c-0.62,0.41-1.09,0.97-1.42,1.66s-0.49,1.46-0.49,2.3c0,0.91,0.19,1.71,0.57,2.39c0.38,0.68,0.89,1.2,1.53,1.57   c0.64,0.37,1.37,0.56,2.18,0.56c0.57,0,1.09-0.07,1.56-0.2c0.47-0.14,0.89-0.35,1.26-0.65v-1.8H244.42z"></path>		<path class="st0" d="M252.25,133.17V118.9h3.08v14.27H252.25z"></path>		<path class="st0" d="M263.5,133.17l-0.09-0.94c-0.71,0.83-1.73,1.24-3.04,1.24c-0.47,0-0.97-0.09-1.49-0.27s-0.97-0.5-1.34-0.95   c-0.37-0.46-0.56-1.08-0.56-1.88c0-0.78,0.2-1.45,0.61-1.99c0.41-0.54,0.96-0.95,1.66-1.23c0.7-0.28,1.48-0.42,2.35-0.42   c0.36,0,0.72,0.01,1.08,0.02c0.36,0.01,0.6,0.04,0.72,0.06v-0.21c0-0.51-0.2-0.88-0.59-1.1s-0.84-0.33-1.34-0.33   c-0.67,0-1.23,0.09-1.69,0.26c-0.46,0.17-0.84,0.36-1.16,0.58l-1.26-1.88c0.41-0.33,0.98-0.63,1.69-0.91   c0.71-0.28,1.66-0.42,2.85-0.42c1.53,0,2.65,0.41,3.38,1.23s1.09,1.92,1.09,3.31v5.84H263.5z M263.42,129.56v-0.81   c-0.07-0.01-0.21-0.03-0.41-0.05c-0.2-0.02-0.43-0.03-0.69-0.03c-0.86,0-1.46,0.12-1.82,0.36c-0.36,0.24-0.54,0.58-0.54,1.03   c0,0.83,0.5,1.24,1.5,1.24c0.48,0,0.93-0.15,1.34-0.45C263.21,130.54,263.42,130.11,263.42,129.56z"></path>		<path class="st0" d="M268.12,132.04l1.52-1.97c0.33,0.3,0.76,0.55,1.29,0.75c0.54,0.2,1.05,0.3,1.55,0.3   c0.46,0,0.83-0.06,1.13-0.18c0.3-0.12,0.45-0.34,0.45-0.65c0-0.19-0.06-0.34-0.18-0.46c-0.12-0.12-0.35-0.25-0.68-0.37   c-0.34-0.13-0.82-0.28-1.47-0.45c-0.51-0.14-1.01-0.33-1.49-0.58c-0.48-0.24-0.87-0.57-1.18-0.97c-0.31-0.41-0.46-0.92-0.46-1.53   c0-0.63,0.19-1.17,0.56-1.64c0.37-0.46,0.88-0.83,1.52-1.09s1.36-0.4,2.16-0.4c0.86,0,1.61,0.1,2.26,0.29   c0.65,0.19,1.24,0.47,1.77,0.85l-1.31,2.03c-0.31-0.21-0.68-0.41-1.11-0.58s-0.91-0.26-1.43-0.26c-0.47,0-0.81,0.07-1.03,0.2   c-0.21,0.14-0.32,0.32-0.32,0.55c0,0.33,0.22,0.57,0.67,0.73c0.45,0.16,1.04,0.34,1.79,0.54c1.01,0.27,1.75,0.66,2.23,1.17   c0.47,0.51,0.71,1.17,0.71,2c0,0.73-0.21,1.33-0.64,1.81s-0.98,0.83-1.66,1.06c-0.68,0.23-1.4,0.34-2.15,0.34   c-0.9,0-1.75-0.12-2.55-0.37C269.27,132.89,268.62,132.52,268.12,132.04z"></path>		<path class="st0" d="M278.93,132.79V118.9h3.08v4.99c0.29-0.3,0.67-0.54,1.17-0.71c0.49-0.17,0.98-0.26,1.47-0.26   c0.96,0,1.77,0.23,2.43,0.7c0.66,0.46,1.17,1.08,1.52,1.84c0.35,0.76,0.52,1.6,0.52,2.51c0,1.08-0.23,2.04-0.68,2.88   c-0.46,0.83-1.12,1.49-2,1.96c-0.88,0.47-1.94,0.71-3.18,0.71c-0.86,0-1.67-0.08-2.43-0.24   C280.06,133.12,279.43,132.96,278.93,132.79z M282.01,127.63v3.1c0.17,0.06,0.36,0.11,0.58,0.15c0.21,0.04,0.5,0.06,0.86,0.06   c0.8,0,1.43-0.26,1.88-0.79c0.46-0.53,0.68-1.22,0.68-2.08c0-0.41-0.07-0.81-0.2-1.2c-0.14-0.39-0.35-0.7-0.64-0.95   c-0.29-0.25-0.67-0.37-1.14-0.37c-0.68,0-1.19,0.19-1.52,0.57S282.01,127,282.01,127.63z"></path>		<path class="st0" d="M299.15,130.13l1.26,1.95c-0.14,0.1-0.4,0.26-0.76,0.49c-0.36,0.23-0.84,0.44-1.44,0.64   c-0.6,0.2-1.33,0.3-2.2,0.3c-1.14,0-2.13-0.23-2.95-0.68c-0.83-0.46-1.46-1.09-1.9-1.9c-0.44-0.81-0.66-1.75-0.66-2.8   c0-0.94,0.2-1.82,0.61-2.63c0.41-0.81,1-1.47,1.78-1.96c0.78-0.49,1.71-0.74,2.79-0.74s1.99,0.25,2.73,0.74   c0.74,0.49,1.29,1.17,1.67,2.03c0.38,0.86,0.57,1.86,0.57,2.99v0.51h-7.15c0.01,0.53,0.26,1,0.73,1.41   c0.47,0.41,1.11,0.62,1.91,0.62c0.8,0,1.45-0.12,1.95-0.35C298.56,130.51,298.92,130.31,299.15,130.13z M293.48,127.1h4.24   c0-0.29-0.08-0.57-0.22-0.87c-0.15-0.29-0.38-0.54-0.68-0.74c-0.31-0.2-0.7-0.3-1.17-0.3c-0.47,0-0.87,0.1-1.19,0.3   c-0.32,0.2-0.56,0.45-0.73,0.74C293.56,126.52,293.48,126.81,293.48,127.1z"></path>		<path class="st0" d="M301.89,132.04l1.52-1.97c0.33,0.3,0.76,0.55,1.29,0.75c0.54,0.2,1.05,0.3,1.55,0.3   c0.46,0,0.83-0.06,1.13-0.18c0.3-0.12,0.45-0.34,0.45-0.65c0-0.19-0.06-0.34-0.18-0.46c-0.12-0.12-0.35-0.25-0.68-0.37   c-0.34-0.13-0.82-0.28-1.47-0.45c-0.51-0.14-1.01-0.33-1.49-0.58c-0.48-0.24-0.87-0.57-1.18-0.97c-0.31-0.41-0.46-0.92-0.46-1.53   c0-0.63,0.19-1.17,0.56-1.64c0.37-0.46,0.88-0.83,1.52-1.09s1.36-0.4,2.16-0.4c0.86,0,1.61,0.1,2.26,0.29   c0.65,0.19,1.24,0.47,1.77,0.85l-1.31,2.03c-0.31-0.21-0.68-0.41-1.11-0.58s-0.91-0.26-1.43-0.26c-0.47,0-0.81,0.07-1.03,0.2   c-0.21,0.14-0.32,0.32-0.32,0.55c0,0.33,0.22,0.57,0.67,0.73c0.45,0.16,1.04,0.34,1.79,0.54c1.01,0.27,1.75,0.66,2.23,1.17   c0.47,0.51,0.71,1.17,0.71,2c0,0.73-0.21,1.33-0.64,1.81s-0.98,0.83-1.66,1.06c-0.68,0.23-1.4,0.34-2.15,0.34   c-0.9,0-1.75-0.12-2.55-0.37C303.04,132.89,302.39,132.52,301.89,132.04z"></path>		<path class="st0" d="M319.91,129.83l1.8,2.01c-0.41,0.46-0.96,0.85-1.64,1.18c-0.68,0.33-1.48,0.49-2.41,0.49   c-1.07,0-2.01-0.23-2.82-0.7c-0.81-0.46-1.45-1.1-1.91-1.9c-0.46-0.81-0.68-1.73-0.68-2.77c0-1,0.24-1.9,0.71-2.71   c0.47-0.81,1.11-1.45,1.93-1.93c0.81-0.48,1.74-0.72,2.78-0.72c0.91,0,1.71,0.15,2.39,0.45c0.68,0.3,1.24,0.7,1.68,1.2l-1.86,2.01   c-0.23-0.26-0.51-0.48-0.83-0.68s-0.76-0.3-1.31-0.3c-0.49,0-0.91,0.12-1.26,0.37c-0.36,0.25-0.63,0.58-0.82,0.98   c-0.19,0.41-0.29,0.85-0.29,1.32c0,0.44,0.1,0.87,0.29,1.27c0.19,0.41,0.47,0.74,0.82,1.01c0.36,0.26,0.78,0.4,1.26,0.4   c0.53,0,0.97-0.11,1.33-0.32C319.41,130.28,319.7,130.06,319.91,129.83z"></path>		<path class="st0" d="M323.12,133.17V118.9h3.06v5.2c0.33-0.39,0.76-0.68,1.31-0.89c0.54-0.21,1.09-0.31,1.65-0.31   c1.14,0,2.06,0.35,2.76,1.04s1.05,1.7,1.05,3.03v6.21h-3.06v-5.74c0-0.58-0.15-1.04-0.45-1.37c-0.3-0.33-0.7-0.49-1.2-0.49   c-0.66,0-1.16,0.22-1.51,0.66c-0.35,0.44-0.52,0.96-0.52,1.54v5.39H323.12z"></path>		<path class="st0" d="M335.19,133.17V118.9h3.08v14.27H335.19z"></path>		<path class="st0" d="M346.45,133.17l-0.09-0.94c-0.71,0.83-1.73,1.24-3.04,1.24c-0.47,0-0.97-0.09-1.49-0.27s-0.97-0.5-1.34-0.95   c-0.37-0.46-0.56-1.08-0.56-1.88c0-0.78,0.2-1.45,0.61-1.99c0.41-0.54,0.96-0.95,1.66-1.23c0.7-0.28,1.48-0.42,2.35-0.42   c0.36,0,0.72,0.01,1.08,0.02c0.36,0.01,0.6,0.04,0.72,0.06v-0.21c0-0.51-0.2-0.88-0.59-1.1s-0.84-0.33-1.34-0.33   c-0.67,0-1.23,0.09-1.69,0.26c-0.46,0.17-0.84,0.36-1.16,0.58l-1.26-1.88c0.41-0.33,0.98-0.63,1.69-0.91   c0.71-0.28,1.66-0.42,2.85-0.42c1.53,0,2.65,0.41,3.38,1.23s1.09,1.92,1.09,3.31v5.84H346.45z M341.38,121.32v-2.44h2.63v2.44   H341.38z M346.36,129.56v-0.81c-0.07-0.01-0.21-0.03-0.41-0.05c-0.2-0.02-0.43-0.03-0.69-0.03c-0.86,0-1.46,0.12-1.82,0.36   c-0.36,0.24-0.54,0.58-0.54,1.03c0,0.83,0.5,1.24,1.5,1.24c0.48,0,0.93-0.15,1.34-0.45C346.16,130.54,346.36,130.11,346.36,129.56   z M345.51,121.32v-2.44h2.63v2.44H345.51z"></path>		<path class="st0" d="M351.97,136.64l1.24-2.18c0.4,0.24,0.82,0.43,1.27,0.57c0.45,0.14,0.94,0.2,1.49,0.2   c0.7,0,1.25-0.19,1.65-0.56c0.4-0.37,0.6-0.93,0.6-1.67v-0.71c-0.64,0.56-1.5,0.83-2.57,0.83c-0.96,0-1.77-0.2-2.45-0.61   c-0.68-0.41-1.2-0.97-1.55-1.7s-0.54-1.55-0.54-2.48c0-1.08,0.24-2.03,0.73-2.85s1.16-1.44,2.02-1.89   c0.86-0.45,1.87-0.67,3.03-0.67c0.83,0,1.62,0.07,2.38,0.21s1.43,0.32,2.01,0.54v9.18c0,1.65-0.46,2.88-1.37,3.67   c-0.91,0.79-2.16,1.19-3.75,1.19C354.42,137.71,353.02,137.35,351.97,136.64z M358.24,128.7v-3.02c-0.2-0.07-0.4-0.12-0.6-0.16   c-0.2-0.04-0.46-0.05-0.79-0.05c-0.88,0-1.54,0.27-1.98,0.81s-0.65,1.19-0.65,1.95c0,0.71,0.18,1.29,0.54,1.72   c0.36,0.44,0.86,0.65,1.52,0.65c0.63,0,1.11-0.15,1.46-0.46C358.07,129.84,358.24,129.36,358.24,128.7z"></path>		<path class="st0" d="M371.78,130.13l1.26,1.95c-0.14,0.1-0.4,0.26-0.76,0.49c-0.36,0.23-0.84,0.44-1.44,0.64   c-0.6,0.2-1.33,0.3-2.2,0.3c-1.14,0-2.13-0.23-2.95-0.68c-0.83-0.46-1.46-1.09-1.9-1.9c-0.44-0.81-0.66-1.75-0.66-2.8   c0-0.94,0.2-1.82,0.61-2.63c0.41-0.81,1-1.47,1.78-1.96c0.78-0.49,1.71-0.74,2.79-0.74s1.99,0.25,2.73,0.74   c0.74,0.49,1.29,1.17,1.67,2.03c0.38,0.86,0.57,1.86,0.57,2.99v0.51h-7.15c0.01,0.53,0.26,1,0.73,1.41   c0.47,0.41,1.11,0.62,1.91,0.62c0.8,0,1.45-0.12,1.95-0.35C371.19,130.51,371.55,130.31,371.78,130.13z M366.11,127.1h4.24   c0-0.29-0.08-0.57-0.22-0.87c-0.15-0.29-0.38-0.54-0.68-0.74c-0.31-0.2-0.7-0.3-1.17-0.3c-0.47,0-0.87,0.1-1.19,0.3   c-0.32,0.2-0.56,0.45-0.73,0.74C366.19,126.52,366.11,126.81,366.11,127.1z"></path>	</g></g></svg>