<?xml version="1.0" encoding="utf-8"?>
<svg viewBox="-249.086 -13.712 1155.85 516.911" xmlns="http://www.w3.org/2000/svg">
  <g transform="matrix(1, 0, 0, 1, 303.4735197864029, 198.3546506868197)" id="background-logo">
    <rect style="stroke: none; stroke-width: 0; stroke-dasharray: none; stroke-linecap: butt; stroke-dashoffset: 0; stroke-linejoin: miter; stroke-miterlimit: 4; fill: rgb(255,255,255); fill-opacity: 0; fill-rule: nonzero; opacity: 1;" paint-order="stroke" x="-640" y="-512" rx="0" ry="0" width="1280" height="1024"/>
  </g>
  <g transform="matrix(1.9211540222167967, 0, 0, 1.9211540222167967, -99.88486778392985, 135.540104137066)" id="text-logo">
    <g style="" paint-order="stroke">
      <g transform="matrix(1 0 0 1 0 0)" id="text-logo-path-0">
        <path style="stroke: rgb(255,255,255); stroke-width: 0; stroke-dasharray: none; stroke-linecap: butt; stroke-dashoffset: 0; stroke-linejoin: miter; stroke-miterlimit: 4; fill: rgb(228,60,68); fill-rule: nonzero; opacity: 1;" paint-order="stroke" transform=" translate(-71.31916209262012, 76.33)" d="M -5.23 0 L 31.84 0 L 41 -43.62 L 80.26 -43.62 C 116.68 -43.62 137.83 -60.63 145.68 -98.36 C 153.53 -134.34 140.45 -152.66 103.37 -152.66 L 27.04 -152.66 Z M 86.8 -74.15 L 47.54 -74.15 L 57.79 -122.13 L 96.39 -122.13 C 107.95 -122.13 112.1 -114.71 108.61 -98.14 C 105.34 -82.22 97.92 -74.15 86.8 -74.15 Z" stroke-linecap="round"/>
      </g>
    </g>
  </g>
  <g transform="matrix(1.9211540222167967, 0, 0, 1.9211540222167967, 427.8555425362447, 273.9338765720686)" id="tagline-2325af52-0f10-4c78-80fb-f9aa0793c251-logo">
    <g style="" paint-order="stroke">
      <g transform="matrix(1 0 0 1 0 0)" id="tagline-2325af52-0f10-4c78-80fb-f9aa0793c251-logo-path-0">
        <path style="stroke: none; stroke-width: 0; stroke-dasharray: none; stroke-linecap: butt; stroke-dashoffset: 0; stroke-linejoin: miter; stroke-miterlimit: 4; fill: rgb(0,0,0); fill-rule: nonzero; opacity: 1;" paint-order="stroke" transform=" translate(-241.91731644829008, 5.9028226345403425)" d="M 37.54 -12.46 L 37.54 -12.46 Q 37.54 -17.31 39.56 -21.44 Q 41.58 -25.56 44.01 -29.28 Q 46.43 -33.01 48.46 -36.73 Q 50.48 -40.45 50.48 -44.65 L 50.48 -44.65 Q 50.48 -45.62 50.4 -47 Q 50.32 -48.38 50.07 -49.67 Q 49.83 -50.96 49.1 -51.85 Q 48.38 -52.74 47.24 -52.74 L 47.24 -52.74 Q 47.08 -52.74 46.68 -52.66 Q 46.27 -52.58 46.27 -52.42 L 46.27 -52.42 Q 44.01 -49.35 40.85 -45.54 Q 37.7 -41.74 34.14 -38.02 Q 30.58 -34.3 27.18 -30.9 Q 23.78 -27.5 21.03 -25.24 L 21.03 -25.24 Q 19.09 -23.46 15.77 -20.39 Q 12.46 -17.31 9.14 -14.32 Q 5.82 -11.33 3.32 -9.06 Q 0.81 -6.8 0.49 -6.8 L 0.49 -6.8 L -6.96 -13.11 Q -5.5 -13.11 -4.13 -13.75 Q -2.75 -14.4 -1.46 -15.21 L -1.46 -15.21 Q 8.25 -21.68 16.1 -30.09 Q 23.95 -38.51 31.55 -48.21 L 31.55 -48.21 Q 31.87 -48.7 33.25 -51.04 Q 34.62 -53.39 36.24 -56.38 Q 37.86 -59.38 39.48 -62.37 Q 41.09 -65.36 41.9 -67.14 L 41.9 -67.14 Q 42.87 -69.25 43.12 -70.54 Q 43.36 -71.84 43.6 -72.56 Q 43.85 -73.29 44.49 -73.61 Q 45.14 -73.94 47.24 -73.94 L 47.24 -73.94 Q 47.57 -73.94 48.78 -73.78 Q 49.99 -73.61 50.32 -73.45 L 50.32 -73.45 Q 52.42 -69.08 54.04 -65.69 Q 55.66 -62.29 56.79 -59.3 Q 57.92 -56.3 58.49 -53.23 Q 59.05 -50.16 59.05 -46.43 L 59.05 -46.43 Q 56.95 -41.09 54.36 -35.51 Q 51.77 -29.93 49.99 -24.92 Q 48.21 -19.9 47.81 -15.86 Q 47.4 -11.81 49.59 -9.46 Q 51.77 -7.12 57.03 -6.96 Q 62.29 -6.8 72 -9.71 L 72 -9.71 Q 74.59 -8.41 72.48 -6.55 Q 70.38 -4.69 66.09 -3.07 Q 61.8 -1.46 56.71 -0.4 Q 51.61 0.65 48.21 0.16 L 48.21 0.16 Q 45.14 0.16 43.12 -0.89 Q 41.09 -1.94 39.88 -3.72 Q 38.67 -5.5 38.1 -7.77 Q 37.54 -10.03 37.54 -12.46 Z M 65.85 -13.59 L 65.85 -13.59 Q 65.85 -14.24 65.93 -16.26 Q 66.01 -18.28 66.01 -18.93 L 66.01 -18.93 Q 71.19 -30.74 79.28 -40.77 Q 87.37 -50.8 97.56 -58.57 L 97.56 -58.57 Q 97.88 -58.57 98.61 -58.81 Q 99.34 -59.05 99.66 -59.05 L 99.66 -59.05 Q 104.03 -59.05 106.86 -57.19 Q 109.69 -55.33 111.39 -52.34 Q 113.09 -49.35 113.74 -45.71 Q 114.39 -42.07 114.39 -38.67 L 114.39 -38.67 Q 114.39 -32.36 111.47 -25.48 Q 108.56 -18.61 103.63 -12.86 Q 98.69 -7.12 92.38 -3.48 Q 86.07 0.16 79.28 0.16 L 79.28 0.16 Q 72.48 0.16 69.17 -3.48 Q 65.85 -7.12 65.85 -13.59 Z M 78.47 -15.53 L 78.47 -15.53 Q 78.47 -13.75 79.92 -13.11 Q 81.38 -12.46 82.84 -12.46 L 82.84 -12.46 Q 86.88 -12.46 90.68 -14.64 Q 94.49 -16.83 97.48 -20.14 Q 100.47 -23.46 102.25 -27.5 Q 104.03 -31.55 104.03 -35.27 L 104.03 -35.27 Q 104.03 -37.05 103.79 -39.23 Q 103.55 -41.42 102.74 -43.12 Q 101.93 -44.82 100.23 -45.79 Q 98.53 -46.76 95.46 -46.11 L 95.46 -46.11 Q 93.19 -45.62 90.28 -41.9 Q 87.37 -38.18 84.7 -33.25 Q 82.03 -28.31 80.25 -23.38 Q 78.47 -18.44 78.47 -15.53 Z M 119.4 -15.69 L 119.4 -15.69 Q 119.4 -20.39 121.18 -25.08 Q 122.96 -29.77 125.39 -34.38 Q 127.81 -38.99 130.32 -43.52 Q 132.83 -48.05 134.12 -52.42 L 134.12 -52.42 Q 131.05 -50.64 128.87 -50.4 Q 126.68 -50.16 123.61 -50.16 L 123.61 -50.16 Q 123.28 -50.16 121.59 -50.24 Q 119.89 -50.32 119.4 -50.32 L 119.4 -50.32 Q 120.37 -53.88 122.96 -56.71 Q 125.55 -59.54 128.87 -61.56 Q 132.18 -63.58 135.82 -64.96 Q 139.46 -66.33 142.38 -67.14 L 142.38 -67.14 Q 147.23 -74.75 150.3 -82.43 Q 153.38 -90.12 156.53 -97.48 Q 159.69 -104.84 163.97 -111.55 Q 168.26 -118.27 175.54 -123.93 L 175.54 -123.93 L 176.35 -117.78 L 156.13 -70.38 Q 157.91 -70.86 160.5 -71.35 Q 163.09 -71.84 165.75 -72.32 Q 168.42 -72.81 170.93 -73.21 Q 173.44 -73.61 175.22 -74.1 L 175.22 -74.1 Q 175.38 -74.1 176.19 -74.18 Q 177 -74.26 177.48 -74.26 L 177.48 -74.26 Q 179.75 -74.26 181.21 -73.45 Q 182.66 -72.64 183.63 -69.89 L 183.63 -69.89 Q 172.63 -66.66 163.73 -63.1 Q 154.83 -59.54 148.28 -53.8 Q 141.73 -48.05 137.6 -39.23 Q 133.48 -30.42 131.86 -16.66 L 131.86 -16.66 Q 131.86 -13.75 132.18 -11.33 Q 132.51 -8.9 136.23 -8.41 L 136.23 -8.41 Q 139.95 -8.41 143.18 -9.87 Q 146.42 -11.33 149.49 -13.02 Q 152.57 -14.72 155.72 -16.18 Q 158.88 -17.64 162.6 -17.64 L 162.6 -17.64 Q 162.6 -13.75 159.2 -10.52 Q 155.8 -7.28 151.03 -4.85 Q 146.26 -2.43 141.24 -1.13 Q 136.23 0.16 132.99 0.16 L 132.99 0.16 Q 129.76 0.16 127.17 -1.13 Q 124.58 -2.43 122.88 -4.61 Q 121.18 -6.8 120.29 -9.71 Q 119.4 -12.62 119.4 -15.69 Z M 164.06 -13.59 L 164.06 -13.59 Q 164.06 -14.24 164.14 -16.26 Q 164.22 -18.28 164.22 -18.93 L 164.22 -18.93 Q 169.39 -30.74 177.48 -40.77 Q 185.57 -50.8 195.77 -58.57 L 195.77 -58.57 Q 196.09 -58.57 196.82 -58.81 Q 197.55 -59.05 197.87 -59.05 L 197.87 -59.05 Q 202.24 -59.05 205.07 -57.19 Q 207.9 -55.33 209.6 -52.34 Q 211.3 -49.35 211.95 -45.71 Q 212.59 -42.07 212.59 -38.67 L 212.59 -38.67 Q 212.59 -32.36 209.68 -25.48 Q 206.77 -18.61 201.83 -12.86 Q 196.9 -7.12 190.59 -3.48 Q 184.28 0.16 177.48 0.16 L 177.48 0.16 Q 170.69 0.16 167.37 -3.48 Q 164.06 -7.12 164.06 -13.59 Z M 176.68 -15.53 L 176.68 -15.53 Q 176.68 -13.75 178.13 -13.11 Q 179.59 -12.46 181.04 -12.46 L 181.04 -12.46 Q 185.09 -12.46 188.89 -14.64 Q 192.69 -16.83 195.69 -20.14 Q 198.68 -23.46 200.46 -27.5 Q 202.24 -31.55 202.24 -35.27 L 202.24 -35.27 Q 202.24 -37.05 202 -39.23 Q 201.75 -41.42 200.94 -43.12 Q 200.14 -44.82 198.44 -45.79 Q 196.74 -46.76 193.66 -46.11 L 193.66 -46.11 Q 191.4 -45.62 188.49 -41.9 Q 185.57 -38.18 182.9 -33.25 Q 180.23 -28.31 178.46 -23.38 Q 176.68 -18.44 176.68 -15.53 Z M 217.61 -15.69 L 217.61 -15.69 Q 217.61 -20.39 219.39 -25.08 Q 221.17 -29.77 223.59 -34.38 Q 226.02 -38.99 228.53 -43.52 Q 231.04 -48.05 232.33 -52.42 L 232.33 -52.42 Q 229.26 -50.64 227.07 -50.4 Q 224.89 -50.16 221.82 -50.16 L 221.82 -50.16 Q 221.49 -50.16 219.79 -50.24 Q 218.09 -50.32 217.61 -50.32 L 217.61 -50.32 Q 218.58 -53.88 221.17 -56.71 Q 223.76 -59.54 227.07 -61.56 Q 230.39 -63.58 234.03 -64.96 Q 237.67 -66.33 240.58 -67.14 L 240.58 -67.14 Q 245.44 -74.75 248.51 -82.43 Q 251.58 -90.12 254.74 -97.48 Q 257.89 -104.84 262.18 -111.55 Q 266.47 -118.27 273.75 -123.93 L 273.75 -123.93 L 274.56 -117.78 L 254.34 -70.38 Q 256.11 -70.86 258.7 -71.35 Q 261.29 -71.84 263.96 -72.32 Q 266.63 -72.81 269.14 -73.21 Q 271.65 -73.61 273.43 -74.1 L 273.43 -74.1 Q 273.59 -74.1 274.4 -74.18 Q 275.21 -74.26 275.69 -74.26 L 275.69 -74.26 Q 277.96 -74.26 279.41 -73.45 Q 280.87 -72.64 281.84 -69.89 L 281.84 -69.89 Q 270.84 -66.66 261.94 -63.1 Q 253.04 -59.54 246.49 -53.8 Q 239.94 -48.05 235.81 -39.23 Q 231.68 -30.42 230.07 -16.66 L 230.07 -16.66 Q 230.07 -13.75 230.39 -11.33 Q 230.71 -8.9 234.43 -8.41 L 234.43 -8.41 Q 238.16 -8.41 241.39 -9.87 Q 244.63 -11.33 247.7 -13.02 Q 250.78 -14.72 253.93 -16.18 Q 257.09 -17.64 260.81 -17.64 L 260.81 -17.64 Q 260.81 -13.75 257.41 -10.52 Q 254.01 -7.28 249.24 -4.85 Q 244.47 -2.43 239.45 -1.13 Q 234.43 0.16 231.2 0.16 L 231.2 0.16 Q 227.96 0.16 225.37 -1.13 Q 222.79 -2.43 221.09 -4.61 Q 219.39 -6.8 218.5 -9.71 Q 217.61 -12.62 217.61 -15.69 Z M 250.45 48.86 L 250.45 48.86 Q 255.63 40.45 262.42 33.9 Q 269.22 27.34 276.42 21.52 Q 283.62 15.69 290.74 10.19 Q 297.86 4.69 303.92 -1.62 Q 309.99 -7.93 314.36 -15.61 Q 318.73 -23.3 320.35 -33.49 L 320.35 -33.49 Q 320.35 -33.81 320.26 -34.54 Q 320.18 -35.27 320.18 -35.59 L 320.18 -35.59 Q 316.46 -31.23 311.2 -25.72 Q 305.95 -20.22 299.88 -15.37 Q 293.81 -10.52 287.18 -7.28 Q 280.55 -4.04 274.24 -4.04 L 274.24 -4.04 Q 272.62 -4.04 270.11 -4.29 Q 267.6 -4.53 265.18 -5.34 Q 262.75 -6.15 260.97 -7.6 Q 259.19 -9.06 259.19 -11.49 L 259.19 -11.49 Q 259.19 -13.59 260.32 -17.96 Q 261.45 -22.33 263.4 -27.67 Q 265.34 -33.01 267.76 -38.51 Q 270.19 -44.01 272.94 -48.54 Q 275.69 -53.07 278.36 -55.98 Q 281.03 -58.89 283.3 -58.89 L 283.3 -58.89 Q 285.56 -58.89 287.18 -57.92 Q 288.8 -56.95 288.8 -54.69 L 288.8 -54.69 Q 288.8 -50.64 285.88 -46.6 Q 282.97 -42.55 279.57 -37.94 Q 276.18 -33.33 273.26 -27.99 Q 270.35 -22.65 270.35 -15.86 L 270.35 -15.86 Q 281.03 -15.86 289.61 -20.3 Q 298.18 -24.75 305.14 -31.39 Q 312.09 -38.02 317.43 -45.79 Q 322.77 -53.55 326.9 -60.19 Q 331.02 -66.82 334.02 -71.27 Q 337.01 -75.72 339.11 -75.72 L 339.11 -75.72 Q 342.19 -75.72 342.75 -73.86 Q 343.32 -72 343.32 -69.25 L 343.32 -69.25 Q 341.86 -64.23 339.28 -57.52 Q 336.69 -50.8 334.02 -43.44 Q 331.35 -36.08 329.16 -28.8 Q 326.98 -21.52 326.33 -15.53 L 326.33 -15.53 Q 326.33 -15.37 326.41 -15.05 Q 326.49 -14.72 326.49 -14.56 L 326.49 -14.56 Q 329.41 -15.53 331.99 -17.96 Q 334.58 -20.39 337.09 -22.89 Q 339.6 -25.4 342.19 -27.42 Q 344.78 -29.45 347.53 -29.45 L 347.53 -29.45 Q 347.69 -29.45 348.74 -27.18 Q 349.79 -24.92 348.66 -21.68 L 348.66 -21.68 Q 347.2 -20.55 343.4 -17.8 Q 339.6 -15.05 335.39 -12.05 Q 331.19 -9.06 327.46 -6.23 Q 323.74 -3.4 322.29 -1.94 L 322.29 -1.94 Q 320.02 0.32 317.6 4.53 Q 315.17 8.74 312.74 13.99 Q 310.31 19.25 307.97 25.08 Q 305.62 30.9 303.36 36.48 Q 301.09 42.07 298.91 46.84 Q 296.72 51.61 294.94 54.69 L 294.94 54.69 Q 294.14 55.98 291.63 59.78 Q 289.12 63.58 286.13 67.95 Q 283.13 72.32 280.3 76.28 Q 277.47 80.25 276.02 81.87 L 276.02 81.87 Q 275.37 82.68 272.46 85.67 Q 269.54 88.66 265.9 92.3 Q 262.26 95.94 258.62 99.5 Q 254.98 103.06 253.04 104.84 L 253.04 104.84 Q 251.1 105.97 247.86 107.67 Q 244.63 109.37 241.15 110.5 Q 237.67 111.64 234.35 111.96 Q 231.04 112.28 228.93 110.58 Q 226.83 108.89 226.43 104.92 Q 226.02 100.96 228.21 93.76 Q 230.39 86.56 235.73 75.56 Q 241.07 64.55 250.45 48.86 Z M 301.25 14.08 L 301.25 14.08 Q 300.93 14.08 300.2 14.32 Q 299.47 14.56 299.15 14.72 L 299.15 14.72 Q 298.83 15.05 297.69 15.86 Q 296.56 16.66 295.19 17.64 Q 293.81 18.61 292.6 19.58 Q 291.39 20.55 290.9 21.03 L 290.9 21.03 Q 286.37 24.27 280.55 30.17 Q 274.72 36.08 268.49 43.28 Q 262.26 50.48 256.28 58.49 Q 250.29 66.5 245.52 73.86 Q 240.74 81.22 237.83 87.37 Q 234.92 93.52 234.76 97.24 Q 234.6 100.96 237.83 101.6 Q 241.07 102.25 248.83 98.53 L 248.83 98.53 Q 250.45 97.07 253.45 94.24 Q 256.44 91.41 259.43 88.42 Q 262.42 85.43 264.85 82.92 Q 267.28 80.41 267.76 79.76 L 267.76 79.76 Q 268.57 78.63 270.35 76.2 Q 272.13 73.78 274.24 70.7 Q 276.34 67.63 278.6 64.23 Q 280.87 60.83 282.89 57.68 Q 284.91 54.52 286.45 52.1 Q 287.99 49.67 288.63 48.38 L 288.63 48.38 Q 290.09 45.79 292.27 41.01 Q 294.46 36.24 296.4 31.14 Q 298.34 26.05 299.8 21.36 Q 301.25 16.66 301.25 14.08 Z M 327.63 45.3 L 327.63 45.3 Q 327.63 45.14 327.71 44.65 Q 327.79 44.17 327.79 44.01 L 327.79 44.01 Q 327.95 43.52 328.27 42.63 Q 328.6 41.74 328.92 40.77 Q 329.24 39.8 329.57 38.91 Q 329.89 38.02 330.05 37.7 L 330.05 37.7 Q 331.02 35.43 333.29 30.5 Q 335.55 25.56 338.47 19.33 Q 341.38 13.11 344.53 6.31 Q 347.69 -0.49 350.6 -6.71 Q 353.51 -12.94 355.86 -17.88 Q 358.2 -22.81 359.34 -25.24 L 359.34 -25.24 Q 361.44 -28.64 365.24 -33.17 Q 369.04 -37.7 373.74 -42.39 Q 378.43 -47.08 383.85 -51.53 Q 389.27 -55.98 394.53 -59.46 Q 399.78 -62.94 404.8 -65.12 Q 409.82 -67.3 413.7 -67.3 L 413.7 -67.3 Q 419.52 -67.3 421.95 -65.2 Q 424.38 -63.1 424.38 -56.63 L 424.38 -56.63 Q 424.38 -49.67 421.71 -42.79 Q 419.04 -35.92 414.51 -29.77 Q 409.98 -23.62 403.91 -18.61 Q 397.84 -13.59 391.13 -10.35 Q 384.41 -7.12 377.3 -5.91 Q 370.18 -4.69 363.54 -6.31 L 363.54 -6.31 L 361.44 -4.21 L 340.41 48.21 Q 339.92 49.67 337.66 50.07 Q 335.39 50.48 333.94 50.48 L 333.94 50.48 Q 331.83 50.48 329.73 49.1 Q 327.63 47.73 327.63 45.3 Z M 403.34 -33.49 L 403.34 -33.49 Q 410.95 -41.58 413.21 -46.35 Q 415.48 -51.13 414.18 -53.07 Q 412.89 -55.01 409.01 -54.52 Q 405.12 -54.04 400.27 -51.77 Q 395.42 -49.51 390.48 -45.79 Q 385.55 -42.07 382.31 -37.7 L 382.31 -37.7 Q 380.86 -36.08 378.75 -33.41 Q 376.65 -30.74 374.63 -28.07 Q 372.6 -25.4 371.15 -23.3 Q 369.69 -21.19 369.69 -20.87 L 369.69 -20.87 L 369.69 -17.47 Q 380.86 -17.47 388.78 -20.79 Q 396.71 -24.11 403.34 -33.49 Z M 431.17 -8.41 L 431.17 -8.41 Q 428.42 -14.56 428.75 -20.47 Q 429.07 -26.37 431.42 -31.63 Q 433.76 -36.89 437.56 -41.18 Q 441.37 -45.46 445.73 -48.62 Q 450.1 -51.77 454.55 -53.39 Q 459 -55.01 462.4 -54.77 Q 465.8 -54.52 467.74 -52.26 Q 469.68 -49.99 469.03 -45.3 L 469.03 -45.3 Q 469.03 -38.99 465.07 -34.3 Q 461.1 -29.61 456.33 -25.89 Q 451.56 -22.17 447.59 -19.17 Q 443.63 -16.18 443.63 -13.59 L 443.63 -13.59 Q 443.63 -12.13 445.33 -11.33 Q 447.03 -10.52 449.29 -10.11 Q 451.56 -9.71 453.82 -9.55 Q 456.09 -9.38 457.06 -9.22 L 457.06 -9.22 Q 472.27 -12.46 479.87 -13.19 Q 487.48 -13.91 489.42 -13.02 Q 491.36 -12.13 488.69 -10.27 Q 486.02 -8.41 480.52 -6.39 Q 475.02 -4.37 467.74 -2.75 Q 460.46 -1.13 453.34 -0.89 Q 446.22 -0.65 440.15 -2.27 Q 434.08 -3.88 431.17 -8.41 Z M 459.49 -45.3 L 459.49 -45.3 Q 456.25 -45.3 453.34 -43.52 Q 450.43 -41.74 448.08 -39.07 Q 445.73 -36.4 444.12 -33.25 Q 442.5 -30.09 441.69 -27.34 L 441.69 -27.34 Q 442.01 -27.18 442.17 -27.18 L 442.17 -27.18 L 442.66 -27.18 Q 444.92 -27.18 447.84 -29.12 Q 450.75 -31.06 453.34 -33.9 Q 455.93 -36.73 457.71 -39.8 Q 459.49 -42.87 459.49 -45.3 Z" stroke-linecap="round"/>
      </g>
    </g>
  </g>
</svg>